{"title":"Clash Of The Titans 2010 TS XViD - IMAGiNE","uid":5493253,"size":1461030079,"categoryP":"video","categoryS":"movies","magnet":"?xt=urn:btih:a4ac6958894d2c7732b09c15e1d0592a02803da2&amp;dn=Clash+Of+The+Titans+2010+TS+XViD+-+IMAGiNE&amp;tr=udp%3A%2F%2Ftracker.openbittorrent.com%3A80&amp;tr=udp%3A%2F%2Fopen.demonii.com%3A1337&amp;tr=udp%3A%2F%2Ftracker.coppersurfer.tk%3A6969&amp;tr=udp%3A%2F%2Fexodus.desync.com%3A6969","seeders":0,"leechers":1,"uploader":"TvTeam","files":101,"time":1271116415,"description":"www . Torrentday . com - Your Key To The Scene.\n\n\nwww . Torrentday . com :  Clean RAR Scene Releases!\n\n\nEnjoy =)\n\n...................................NFO:....................................\n\n.      *********** ****    ****      ***      ******** *********** ****    *** **********\n           *+*     +*+*+* *+*+*+   *+* *+*   *+*    *+*    *+*     *+*+*   *+* *+*        \n           +*+     +*+ +*+*+ +*+  +*+   +*+  +*+           +*+     *+*+*+  +*+ +*+        \n           +$+     +$+  +*+  +$+ +$++*++$++* *$*           +$+     +$+ +*+ +$+ +$++*++$  \n           +$+     +$+       +$+ +$+     +$+ +$+   +$+$    +$+     +$+  +$+$+$ +$+        \n           $+$     $+$       $+$ $+$     $+$ $+$    $+$    $+$     $+$   $+$+$ $+$        \n       $$$$$$$$$$$ $$$       $$$ $$$     $$$  $$$$$$$$ $$$$$$$$$$$ $$$    $$$$ $$$$$$$$$$     \n                                                \n\n\n\n                           Another Fine Release Brought to you from - IMAGiNE                   \n                                               \n********************************************************************************************************************                                \n                             Clash Of The Titans 2010 TS XViD - IMAGiNE\n********************************************************************************************************************\n\nRipper ...........: IMAGiNE                                        IMDB Rating.......:6.3/10                             \nVideo Codec.......: XVID                                         Release Date......:12/04/10\nAudio Codec.......:MP3                                           Theatre Date......:02/04/10\nAudio Bitrate.....:128                                              Runtime.......:1h 35mn\nSubtitles.........:NIL                                                 Language..........:ENGLISH\nResolution...... 720 x 272                                      IMDb URL..........:http://www.imdb.com/title/tt0800320/\n\n\n[color=yellow]DETAILS:[/color]\n\nVideo\nFormat                           : MPEG-4 Visual\nFormat profile                   : Streaming Video@L1\nFormat settings, BVOP            : Yes\nFormat settings, QPel            : No\nFormat settings, GMC             : No warppoints\nFormat settings, Matrix          : Default\nMuxing mode                      : Packed bitstream\nCodec ID                         : XVID\nCodec ID/Hint                    : XviD\nDuration                         : 1h 35mn\nBit rate                         : 1 865 Kbps\nWidth                            : 720 pixels\nHeight                           : 272 pixels\nDisplay aspect ratio             : 2.647\nFrame rate                       : 23.976 fps\nResolution                       : 24 bits\nColorimetry                      : 4:2:0\nScan type                        : Progressive\nBits/(Pixel*Frame)               : 0.397\nStream size                      : 1.25 GiB (93%)\nWriting library                  : XviD 50\n\nAudio\nFormat                           : MPEG Audio\nFormat version                   : Version 1\nFormat profile                   : Layer 3\nCodec ID                         : 55\nCodec ID/Hint                    : MP3\nDuration                         : 1h 35mn\nBit rate mode                    : Constant\nBit rate                         : 128 Kbps\nChannel(s)                       : 2 channels\nSampling rate                    : 48.0 KHz\nResolution                       : 16 bits\nStream size                      : 87.6 MiB (6%)\nAlignment                        : Split accross interleaves\nInterleave, duration             : 42 ms (1.00 video frame)\nInterleave, preload duration     : 500 ms\n\n\n[color=yellow]NOTES:[/color]\n\nIMAGiNE bringing you another release.....Clash of the Titans 2010\nRight firstly thanks to a special friend for the video ....audio is our own.\nWell at one stage we wasn't going to release this as it was a right pain in the ass.....mainly due to the cammer\nhaving the shakes :lol:\nWell to get this anywhere near good we've had to cut the source up into alot of small pieces and rotate,crop and filter\neach one differently and then resize them to the same res and join together......took days.\nSo on some parts the AR might look a bit off and other parts it looks fine,we tried to find a nice balance inbetween so.\nAudio was nice and sycning wise,it wasn't too bad.....10cuts or so in total.\n\nAnyway we have decided to release this now,but i will warn you there is still some parts you can tell when the cammer moves\nbecause you might see some black borders here and there...but after viewing and checking we think it's worth the release.\n\nEnjoy.","torrent":{"xt":"urn:btih:a4ac6958894d2c7732b09c15e1d0592a02803da2","amp;dn":"Clash+Of+The+Titans+2010+TS+XViD+-+IMAGiNE","amp;tr":["udp%3A%2F%2Ftracker.openbittorrent.com%3A80","udp%3A%2F%2Fopen.demonii.com%3A1337","udp%3A%2F%2Ftracker.coppersurfer.tk%3A6969","udp%3A%2F%2Fexodus.desync.com%3A6969"],"infoHash":"a4ac6958894d2c7732b09c15e1d0592a02803da2","infoHashBuffer":{"type":"Buffer","data":[164,172,105,88,137,77,44,119,50,176,156,21,225,208,89,42,2,128,61,162]},"announce":[],"urlList":[]}}